<svg width="225" height="59" viewBox="0 0 225 59" fill="none" xmlns="http://www.w3.org/2000/svg">
<path d="M39.8594 23.8906V25.4141H36.7188V30.5H34.8906V19.0625H36.7188V23.8906H39.8594ZM23.2891 20.1406V27.1719C26.2539 27.1602 29.3125 26.9258 32.6875 26.2578L32.9219 27.7812C29.3594 28.4609 26.2422 28.7188 23.1016 28.6953H21.4375V20.1406H23.2891ZM37.1875 32.2578V33.7578H31.1406C31.3164 35.9844 34.4102 37.918 37.8906 38.3984L37.2109 39.8047C34.1641 39.3125 31.3867 37.8477 30.1797 35.7969C28.9727 37.8477 26.1953 39.3125 23.1484 39.8047L22.4922 38.3984C25.9492 37.918 29.043 35.9727 29.2422 33.7578H23.1719V32.2578H29.2656V29.9375H31.0938V32.2578H37.1875ZM48.2969 23C48.2969 25.9062 50.4062 28.6484 53.4531 29.75L52.4219 31.1797C50.1367 30.2656 48.3203 28.4492 47.4297 26.1875C46.5391 28.707 44.6406 30.7109 42.1797 31.6953L41.1953 30.1953C44.3125 29.0469 46.4688 26.1406 46.4922 22.9297V20.3516H48.2969V23ZM58.4453 19.0859V34.6953H56.5938V25.5312H51.9531V23.9844H56.5938V19.0859H58.4453ZM58.9141 37.9062V39.4531H44.9688V32.9141H46.8203V37.9062H58.9141ZM80.0781 21.0312H82.1875V32.2578C82.1875 35.75 79.5859 38.3047 75.5781 38.3047C71.5703 38.3047 68.9688 35.75 68.9688 32.2578V21.0312H71.0781V32.0938C71.0781 34.5547 72.7891 36.3359 75.5781 36.3359C78.3906 36.3359 80.0781 34.5547 80.0781 32.0938V21.0312ZM88.0469 21.0312V38H85.9375V21.0312H88.0469ZM94.1875 36.4297L92.3594 42.8047H90.625L91.9141 36.4297H94.1875ZM120.133 19.0859V34.4844H118.305V19.0859H120.133ZM120.789 37.9062V39.4531H106.68V33.0547H108.508V37.9062H120.789ZM110.5 23.9375C110.5 26.7031 112.727 29.1406 115.844 30.1016L114.93 31.5781C112.48 30.793 110.547 29.1289 109.609 26.9609C108.695 29.293 106.773 31.0977 104.289 31.9531L103.352 30.5C106.469 29.4922 108.672 26.8672 108.672 23.9375V23.375H103.867V21.8984H108.672V19.1797H110.523V21.8984H115.281V23.375H110.5V23.9375ZM134.125 20.3281C134.125 22.9766 137.922 25.2969 141.578 25.8359L140.852 27.2656C137.652 26.75 134.5 25.0859 133.188 22.7188C131.852 25.1094 128.676 26.75 125.477 27.2656L124.773 25.8359C128.453 25.2969 132.227 23.0234 132.227 20.3281V19.3438H134.125V20.3281ZM142.656 28.9297V30.4531H134.055V33.125H140.312V39.8984H138.461V34.625H125.781V33.125H132.25V30.4531H123.672V28.9297H142.656ZM160.703 19.0859V25.9531H163.844V27.5H160.703V34.6953H158.875V19.0859H160.703ZM156.883 21.6406V23.1406H144.461V21.6406H149.758V19.0859H151.586V21.6406H156.883ZM150.672 24.2891C153.648 24.2891 155.664 25.8125 155.688 28.1797C155.664 30.5234 153.648 32.0234 150.672 32.0234C147.672 32.0234 145.633 30.5234 145.656 28.1797C145.633 25.8125 147.672 24.2891 150.672 24.2891ZM150.672 25.7422C148.703 25.7422 147.391 26.7031 147.414 28.1797C147.391 29.6562 148.703 30.5938 150.672 30.5703C152.617 30.5938 153.93 29.6562 153.953 28.1797C153.93 26.7031 152.617 25.7422 150.672 25.7422ZM161.664 37.9062V39.4531H147.672V33.4531H149.477V37.9062H161.664ZM183.32 21.0312H185.43V32.2578C185.43 35.75 182.828 38.3047 178.82 38.3047C174.812 38.3047 172.211 35.75 172.211 32.2578V21.0312H174.32V32.0938C174.32 34.5547 176.031 36.3359 178.82 36.3359C181.633 36.3359 183.32 34.5547 183.32 32.0938V21.0312ZM190.258 21.0312L194.57 28.0391H194.711L199.047 21.0312H201.531L196.211 29.5156L201.531 38H199.047L194.711 31.1328H194.57L190.234 38H187.75L193.211 29.5156L187.75 21.0312H190.258Z" fill="black"/>
<path d="M224.5 29.5C224.5 33.2988 221.555 37.049 215.896 40.5578C210.263 44.0497 202.08 47.2126 191.923 49.876C171.616 55.2008 143.536 58.5 112.5 58.5C81.464 58.5 53.3837 55.2008 33.0773 49.876C22.9204 47.2126 14.7368 44.0497 9.10427 40.5578C3.44466 37.049 0.5 33.2988 0.5 29.5C0.5 25.7012 3.44466 21.951 9.10427 18.4422C14.7368 14.9503 22.9204 11.7874 33.0773 9.124C53.3837 3.79922 81.464 0.5 112.5 0.5C143.536 0.5 171.616 3.79922 191.923 9.124C202.08 11.7874 210.263 14.9503 215.896 18.4422C221.555 21.951 224.5 25.7012 224.5 29.5Z" stroke="black"/>
</svg>
