<svg width="308" height="92" viewBox="0 0 308 92" fill="none" xmlns="http://www.w3.org/2000/svg">
<path d="M67.0625 39.5C66.3125 34.5 62.4375 31.4375 57.1875 31.4375C50.125 31.4375 45.5 36.875 45.5 46.375C45.5 56.125 50.1875 61.3125 57.125 61.3125C62.3125 61.3125 66.125 58.4375 67.0625 53.5625L76.5625 53.625C75.5 62 68.5 69.625 57 69.625C44.875 69.625 35.9375 61.125 35.9375 46.375C35.9375 31.625 45.0625 23.125 57 23.125C67.4375 23.125 75.3125 29.125 76.5625 39.5H67.0625ZM98.1875 69.6875C87.9375 69.6875 81.5625 62.625 81.5625 52.125C81.5625 41.625 87.9375 34.625 98.1875 34.625C108.438 34.625 114.875 41.625 114.875 52.125C114.875 62.625 108.438 69.6875 98.1875 69.6875ZM98.25 62.5C103 62.5 105.438 58.0625 105.438 52.125C105.438 46.125 103 41.6875 98.25 41.6875C93.4375 41.6875 90.9375 46.125 90.9375 52.125C90.9375 58.0625 93.4375 62.5 98.25 62.5ZM129.938 49.375V69H120.688V35.0625H129.5V41H129.875C131.438 37.0625 135.062 34.625 140.062 34.625C147.125 34.625 151.812 39.4375 151.75 47.375V69H142.562V49C142.562 44.8125 140.25 42.3125 136.438 42.3125C132.562 42.3125 129.938 44.875 129.938 49.375ZM176.812 35.0625V42H170.438V58.5625C170.438 61.25 171.75 61.9375 173.625 62C174.562 62 176.188 61.9375 177.312 61.8125V69.125C176.312 69.3125 174.688 69.4375 172.375 69.4375C165.688 69.4375 161.125 66.4375 161.188 59.875V42H156.5V35.0625H161.188V26.9375H170.438V35.0625H176.812ZM181 59.5C181 51.9375 187.125 49.4375 193.625 49.0625C196.062 48.9062 200.625 48.6875 202.062 48.625V45.875C202 43.0625 200.062 41.375 196.625 41.375C193.5 41.375 191.5 42.8125 191 45.125H182.188C182.75 39.25 187.875 34.625 196.875 34.625C204.25 34.625 211.25 37.9375 211.25 46.125V69H202.5V64.3125H202.25C200.562 67.4375 197.375 69.625 192.312 69.625C185.812 69.625 181 66.25 181 59.5ZM189.875 59.25C189.875 61.875 192 63.25 194.938 63.25C199.125 63.25 202.125 60.4375 202.062 56.875V54.375C200.656 54.4375 196.719 54.6562 195.125 54.8125C191.938 55.125 189.875 56.625 189.875 59.25ZM233.562 69.6875C223.188 69.6875 216.938 62.5 216.938 52.125C216.938 41.75 223.25 34.625 233.562 34.625C242.312 34.625 248.25 39.75 248.625 47.5H239.938C239.375 44.125 237.188 41.8125 233.688 41.8125C229.25 41.8125 226.312 45.5625 226.312 52C226.312 58.5625 229.188 62.3125 233.688 62.3125C236.938 62.3125 239.375 60.3125 239.938 56.6875H248.625C248.188 64.375 242.562 69.6875 233.562 69.6875ZM272.25 35.0625V42H265.875V58.5625C265.875 61.25 267.188 61.9375 269.062 62C270 62 271.625 61.9375 272.75 61.8125V69.125C271.75 69.3125 270.125 69.4375 267.812 69.4375C261.125 69.4375 256.562 66.4375 256.625 59.875V42H251.938V35.0625H256.625V26.9375H265.875V35.0625H272.25Z" fill="black"/>
<path d="M307.5 46C307.5 52.1079 303.354 58.0279 295.609 63.4969C287.879 68.9564 276.66 73.8934 262.751 78.0478C234.941 86.3548 196.491 91.5 154 91.5C111.509 91.5 73.059 86.3548 45.2487 78.0478C31.3403 73.8934 20.1213 68.9564 12.3905 63.4969C4.64642 58.0279 0.5 52.1079 0.5 46C0.5 39.8921 4.64642 33.9721 12.3905 28.5031C20.1213 23.0436 31.3403 18.1066 45.2487 13.9522C73.059 5.64518 111.509 0.5 154 0.5C196.491 0.5 234.941 5.64518 262.751 13.9522C276.66 18.1066 287.879 23.0436 295.609 28.5031C303.354 33.9721 307.5 39.8921 307.5 46Z" stroke="black"/>
</svg>
